<svg width="85" height="30" viewBox="0 0 85 30" fill="none" xmlns="http://www.w3.org/2000/svg">
<g id="Group 1000014259">
<path id="Subtract" fill-rule="evenodd" clip-rule="evenodd" d="M9.88672 22.3089C9.88672 23.2439 10.6438 23.9649 11.5778 23.9191C12.5117 23.8733 13.2689 23.0782 13.2689 22.1432V17.3312L18.2891 16.183V29.6383C17.2306 29.8751 16.1299 30 15 30C6.71573 30 0 23.2843 0 15C0 8.51132 4.12001 2.98491 9.88672 0.894083V14.6375L4.04944 15.9726C3.1385 16.181 2.53259 17.0957 2.69611 18.0157C2.85963 18.9358 3.73065 19.5127 4.6416 19.3044L9.88672 18.1048V22.3089ZM21.669 28.4396C26.6068 25.9847 30 20.8886 30 15C30 6.71573 23.2843 0 15 0C14.4145 0 13.8369 0.0335447 13.2689 0.098817V13.864L18.2891 12.7158V7.85081C18.2891 6.91634 19.0457 6.12174 19.979 6.07601C20.9124 6.03028 21.669 6.75075 21.669 7.68521V11.9428L24.8065 11.2252C25.7175 11.0168 26.5885 11.5938 26.752 12.5138C26.9155 13.4339 26.3096 14.3486 25.3987 14.5569L21.669 15.41V28.4396Z" fill="#FF5D25"/>
<g id="ohoh">
<path d="M42.6079 22.6162C41.5189 22.6162 40.5731 22.393 39.7707 21.9466C38.9682 21.5003 38.3449 20.8667 37.9007 20.0459C37.4565 19.2107 37.2344 18.2316 37.2344 17.1084C37.2344 16.2589 37.3562 15.5029 37.5998 14.8405C37.8577 14.1637 38.2231 13.5878 38.696 13.1126C39.1688 12.623 39.7348 12.2558 40.394 12.011C41.0532 11.7518 41.7911 11.6222 42.6079 11.6222C43.6969 11.6222 44.6427 11.8454 45.4451 12.2918C46.2475 12.7382 46.8709 13.3718 47.3151 14.1925C47.7593 15.0133 47.9814 15.9853 47.9814 17.1084C47.9814 17.958 47.8524 18.7212 47.5945 19.3979C47.3509 20.0747 46.9927 20.6579 46.5198 21.1475C46.0469 21.6227 45.4809 21.9898 44.8218 22.249C44.1626 22.4938 43.4247 22.6162 42.6079 22.6162ZM42.6079 20.5643C43.1381 20.5643 43.6038 20.4347 44.005 20.1755C44.4062 19.9163 44.7143 19.5347 44.9292 19.0308C45.1585 18.5124 45.2732 17.8716 45.2732 17.1084C45.2732 15.9565 45.0296 15.0997 44.5424 14.5381C44.0552 13.9621 43.4103 13.6742 42.6079 13.6742C42.0777 13.6742 41.612 13.8037 41.2108 14.0629C40.8096 14.3077 40.4943 14.6893 40.265 15.2077C40.0501 15.7117 39.9426 16.3453 39.9426 17.1084C39.9426 18.246 40.1862 19.11 40.6734 19.7003C41.1606 20.2763 41.8054 20.5643 42.6079 20.5643Z" fill="black"/>
<path d="M51.5316 22.573C51.1017 22.573 50.7722 22.4578 50.5429 22.2274C50.3136 21.9826 50.199 21.6371 50.199 21.1907V8.36075C50.199 7.91437 50.3136 7.57598 50.5429 7.34559C50.7722 7.1152 51.1017 7 51.5316 7C51.9615 7 52.2911 7.1152 52.5203 7.34559C52.7639 7.57598 52.8857 7.91437 52.8857 8.36075V13.9549H52.5848C52.9001 13.1918 53.3873 12.6158 54.0464 12.227C54.7199 11.8238 55.4794 11.6222 56.3248 11.6222C57.1702 11.6222 57.8652 11.7806 58.4097 12.0974C58.9542 12.4142 59.3626 12.8966 59.6349 13.5446C59.9071 14.1781 60.0433 14.9845 60.0433 15.9637V21.1907C60.0433 21.6371 59.9286 21.9826 59.6994 22.2274C59.4701 22.4578 59.1405 22.573 58.7106 22.573C58.2807 22.573 57.944 22.4578 57.7004 22.2274C57.4711 21.9826 57.3565 21.6371 57.3565 21.1907V16.0933C57.3565 15.2725 57.1989 14.6749 56.8836 14.3005C56.5827 13.9261 56.1098 13.739 55.465 13.739C54.6769 13.739 54.0464 13.9909 53.5735 14.4949C53.115 14.9845 52.8857 15.6397 52.8857 16.4604V21.1907C52.8857 22.1122 52.4344 22.573 51.5316 22.573Z" fill="black"/>
<path d="M67.5653 22.6162C66.4763 22.6162 65.5306 22.393 64.7281 21.9466C63.9257 21.5003 63.3023 20.8667 62.8581 20.0459C62.4139 19.2107 62.1918 18.2316 62.1918 17.1084C62.1918 16.2589 62.3136 15.5029 62.5572 14.8405C62.8151 14.1637 63.1805 13.5878 63.6534 13.1126C64.1263 12.623 64.6923 12.2558 65.3514 12.011C66.0106 11.7518 66.7486 11.6222 67.5653 11.6222C68.6544 11.6222 69.6001 11.8454 70.4025 12.2918C71.205 12.7382 71.8283 13.3718 72.2725 14.1925C72.7167 15.0133 72.9388 15.9853 72.9388 17.1084C72.9388 17.958 72.8099 18.7212 72.552 19.3979C72.3084 20.0747 71.9501 20.6579 71.4773 21.1475C71.0044 21.6227 70.4384 21.9898 69.7792 22.249C69.1201 22.4938 68.3821 22.6162 67.5653 22.6162ZM67.5653 20.5643C68.0955 20.5643 68.5612 20.4347 68.9624 20.1755C69.3637 19.9163 69.6717 19.5347 69.8867 19.0308C70.116 18.5124 70.2306 17.8716 70.2306 17.1084C70.2306 15.9565 69.987 15.0997 69.4998 14.5381C69.0126 13.9621 68.3678 13.6742 67.5653 13.6742C67.0351 13.6742 66.5694 13.8037 66.1682 14.0629C65.767 14.3077 65.4518 14.6893 65.2225 15.2077C65.0075 15.7117 64.9001 16.3453 64.9001 17.1084C64.9001 18.246 65.1437 19.11 65.6309 19.7003C66.1181 20.2763 66.7629 20.5643 67.5653 20.5643Z" fill="black"/>
<path d="M76.4891 22.573C76.0592 22.573 75.7296 22.4578 75.5003 22.2274C75.2711 21.9826 75.1564 21.6371 75.1564 21.1907V8.36075C75.1564 7.91437 75.2711 7.57598 75.5003 7.34559C75.7296 7.1152 76.0592 7 76.4891 7C76.9189 7 77.2485 7.1152 77.4778 7.34559C77.7214 7.57598 77.8432 7.91437 77.8432 8.36075V13.9549H77.5423C77.8575 13.1918 78.3447 12.6158 79.0039 12.227C79.6773 11.8238 80.4368 11.6222 81.2822 11.6222C82.1277 11.6222 82.8226 11.7806 83.3672 12.0974C83.9117 12.4142 84.3201 12.8966 84.5923 13.5446C84.8646 14.1781 85.0007 14.9845 85.0007 15.9637V21.1907C85.0007 21.6371 84.8861 21.9826 84.6568 22.2274C84.4275 22.4578 84.098 22.573 83.6681 22.573C83.2382 22.573 82.9015 22.4578 82.6579 22.2274C82.4286 21.9826 82.3139 21.6371 82.3139 21.1907V16.0933C82.3139 15.2725 82.1563 14.6749 81.8411 14.3005C81.5402 13.9261 81.0673 13.739 80.4225 13.739C79.6344 13.739 79.0039 13.9909 78.531 14.4949C78.0725 14.9845 77.8432 15.6397 77.8432 16.4604V21.1907C77.8432 22.1122 77.3918 22.573 76.4891 22.573Z" fill="black"/>
</g>
</g>
</svg>
